<?xml version="1.0" encoding="UTF-8"?>
<svg width="140px" height="33px" viewBox="0 0 140 33" version="1.1" xmlns="http://www.w3.org/2000/svg" xmlns:xlink="http://www.w3.org/1999/xlink">
    <title>Logo</title>
    <desc>LA Fitness Dr. Logo</desc>
    <defs></defs>
    <g id="Page-1" stroke="none" stroke-width="1" fill="none" fill-rule="evenodd">
        <g id="Artboard-4" fill="#000000">
            <path d="M9.4765625,31 L1.12695312,31 L1.12695312,3.24414063 L3.86035156,3.24414063 L3.86035156,28.1962891 L8.50097656,28.1962891 L9.4765625,31 Z M16.4638672,10.8027344 L13.0097656,31.5009766 L10.1972656,31 L15.1630859,4.72070312 L17.5800781,2.3828125 L22.6162109,31 L20.0234375,31.5009766 L16.4638672,10.8027344 Z M16.4638672,30.2792969 L13.8359375,26.7900391 L19.0566406,26.7900391 L16.4638672,30.2792969 Z M37.1005859,19.8730469 L37.1005859,30.9296875 L34.3583984,30.9296875 L34.3583984,19.8730469 L32.1259766,19.8730469 L33.1015625,17.0693359 L34.3583984,17.0693359 L34.3583984,3.24414063 L42.1015625,3.24414063 L43.0771484,6.04785156 L37.0214844,6.04785156 L37.0214844,17.0693359 L41.7412109,17.0693359 L41.7412109,19.8730469 L37.1005859,19.8730469 Z M45.6611328,31 L45.6611328,14.3359375 L48.4384766,14.3359375 L48.4384766,31 L45.6611328,31 Z M48.5791016,6.04785156 L47.1376953,10.1962891 L45.4853516,6.04785156 L48.5791016,6.04785156 Z M54.0458984,16.7441406 L51.6025391,16.7441406 L52.2792969,14.40625 L54.0458984,14.40625 L54.0458984,0.90625 L56.4980469,0.90625 L56.4980469,14.3359375 L59.8027344,14.3359375 L58.9765625,16.7441406 L56.4980469,16.7441406 L56.4980469,31 L54.0458984,31 L54.0458984,16.7441406 Z M71.5449219,20.8837891 L71.5449219,30.9296875 L69.0927734,30.9296875 L69.0927734,21.3496094 C69.0927734,18.4492042 68.3837962,16.9990234 66.9658203,16.9990234 C64.9501852,16.9990234 63.9423828,18.545883 63.9423828,21.6396484 L63.9423828,30.9296875 L61.4287109,30.9296875 L61.4287109,13.8964844 L63.9423828,13.8964844 L63.9423828,15.5224609 C64.786137,14.3915959 65.9140554,13.8261719 67.3261719,13.8261719 C70.1386859,13.8964847 71.5449219,16.2490003 71.5449219,20.8837891 Z M85.0449219,19.8730469 L80.1845703,24.8037109 L78.2421875,22.8964844 L82.0917969,19.046875 L81.9511719,18.6865234 C81.4472631,17.6552683 80.7500045,17.1396484 79.859375,17.1396484 C78.8046822,17.1396484 78.060549,17.6904242 77.6269531,18.7919922 C77.1699196,19.9228572 76.9414062,21.2324144 76.9414062,22.7207031 C76.9414062,24.2089918 77.1699196,25.5156194 77.6269531,26.640625 C78.060549,27.77149 78.781245,28.3369141 79.7890625,28.3369141 C80.5800821,28.3369141 81.180662,28.0000034 81.5908203,27.3261719 L81.8017578,27.0009766 L84.2890625,28.4072266 L83.8583984,29.0224609 C82.6572206,30.7275476 81.2773515,31.5800781 79.71875,31.5800781 C77.7968654,31.5800781 76.3906295,30.6660248 75.5,28.8378906 C74.6386676,27.132804 74.2080078,25.1904406 74.2080078,23.0107422 L74.2080078,22.6503906 C74.254883,20.2714725 74.7001911,18.244149 75.5439453,16.5683594 C76.3818401,14.910148 77.7734278,14.0458988 79.71875,13.9755859 L79.859375,13.9755859 C80.7265668,13.9755859 81.5058559,14.189451 82.1972656,14.6171875 C82.8945347,15.0976587 83.4716774,15.7216758 83.9287109,16.4892578 C84.3857445,17.2802774 84.7080069,18.1562452 84.8955078,19.1171875 L85.0449219,19.8730469 Z M90.6962891,13.6503906 L92.6474609,15.8037109 L91.3818359,16.9990234 C90.6376916,17.790043 90.1689463,18.6660108 89.9755859,19.6269531 C90.0517582,20.2949252 90.3417944,20.9423797 90.8457031,21.5693359 L91.3818359,22.2900391 C92.4599663,23.6552803 92.9990234,24.9384706 92.9990234,26.1396484 C92.9990234,27.5341867 92.2578199,28.9374929 90.7753906,30.3496094 L89.3691406,31.7207031 L87.3125,29.7431641 L88.578125,28.5478516 C89.5625049,27.6630815 90.0781248,26.9072297 90.125,26.2802734 L90.125,26.1396484 C90.125,25.3251912 89.7998079,24.5107463 89.1494141,23.6962891 L88.4990234,22.8964844 C87.637691,21.818354 87.1718754,20.6552797 87.1015625,19.4072266 C87.1718754,18.3525338 87.4707005,17.3447314 87.9980469,16.3837891 C88.1914072,16.0263654 88.4316392,15.6894547 88.71875,15.3730469 C89.0058608,15.0859361 89.3310529,14.7871109 89.6943359,14.4765625 C90.0517596,14.1894517 90.3857406,13.9140638 90.6962891,13.6503906 Z M99.4765625,13.6503906 L101.427734,15.8037109 L100.162109,16.9990234 C99.417965,17.790043 98.9492197,18.6660108 98.7558594,19.6269531 C98.8320316,20.2949252 99.1220678,20.9423797 99.6259766,21.5693359 L100.162109,22.2900391 C101.24024,23.6552803 101.779297,24.9384706 101.779297,26.1396484 C101.779297,27.5341867 101.038093,28.9374929 99.5556641,30.3496094 L98.1494141,31.7207031 L96.0927734,29.7431641 L97.3583984,28.5478516 C98.3427784,27.6630815 98.8583982,26.9072297 98.9052734,26.2802734 L98.9052734,26.1396484 C98.9052734,25.3251912 98.5800814,24.5107463 97.9296875,23.6962891 L97.2792969,22.8964844 C96.4179644,21.818354 95.9521488,20.6552797 95.8818359,19.4072266 C95.9521488,18.3525338 96.2509739,17.3447314 96.7783203,16.3837891 C96.9716807,16.0263654 97.2119126,15.6894547 97.4990234,15.3730469 C97.7861342,15.0859361 98.1113263,14.7871109 98.4746094,14.4765625 C98.832033,14.1894517 99.1660141,13.9140638 99.4765625,13.6503906 Z M113.09082,3.27929688 L118.162109,3.27929688 C119.960946,3.27929688 121.317378,3.97655553 122.231445,5.37109375 C123.145512,6.75977257 123.734374,8.42674809 123.998047,10.3720703 C124.238282,12.3173925 124.358398,14.5732294 124.358398,17.1396484 C124.358398,21.2412314 123.974613,24.5663935 123.207031,27.1152344 C122.410152,29.6816535 120.705091,30.9765624 118.091797,31 L113.09082,31 L113.09082,3.27929688 Z M115.824219,28.2666016 L117.87207,28.2666016 C119.436531,28.2666016 120.444334,27.4990311 120.895508,25.9638672 C121.352541,24.4228439 121.581055,22.3339976 121.581055,19.6972656 L121.581055,13.9755859 C121.581055,11.5029173 121.352541,9.56934291 120.895508,8.17480469 C120.415037,6.80956349 119.433601,6.12695312 117.951172,6.12695312 L115.824219,6.12695312 L115.824219,28.2666016 Z M129.974609,16.9199219 C130.982427,15.0507719 132.133783,14.1162109 133.428711,14.1162109 L133.859375,14.1162109 L132.918945,16.8496094 C132.034175,17.0429697 131.448244,17.2832017 131.161133,17.5703125 C130.821287,17.9101579 130.545899,18.4873006 130.334961,19.3017578 C130.094725,20.1396526 129.974609,21.0859322 129.974609,22.140625 L129.974609,30.9296875 L127.522461,30.9296875 L127.522461,14.3359375 L129.974609,14.3359375 L129.974609,16.9199219 Z M137.708984,27.6865234 C138.359378,27.6865234 138.839842,27.8681622 139.150391,28.2314453 C139.437501,28.6123066 139.581055,29.0898409 139.581055,29.6640625 C139.581055,30.2207059 139.425783,30.6777326 139.115234,31.0351562 C138.775389,31.3984393 138.306644,31.5800781 137.708984,31.5800781 C137.134763,31.5800781 136.677736,31.3867207 136.337891,31 C135.980467,30.6132793 135.801758,30.1679713 135.801758,29.6640625 C135.801758,29.1367161 135.968748,28.6709005 136.302734,28.2666016 C136.619142,27.8798809 137.087888,27.6865234 137.708984,27.6865234 Z" id="LA-Fitness-Dr."></path>
        </g>
    </g>
</svg>
